<?xml version="1.0" encoding="utf-8" standalone="no"?>
<!DOCTYPE svg PUBLIC "-//W3C//DTD SVG 1.1//EN"
  "http://www.w3.org/Graphics/SVG/1.1/DTD/svg11.dtd">
<svg height="180pt" version="1.1" viewBox="0 0 360 180" width="360pt" xmlns="http://www.w3.org/2000/svg" xmlns:xlink="http://www.w3.org/1999/xlink">
 <metadata>
  <rdf:RDF xmlns:cc="http://creativecommons.org/ns#" xmlns:dc="http://purl.org/dc/elements/1.1/" xmlns:rdf="http://www.w3.org/1999/02/22-rdf-syntax-ns#">
   <cc:Work>
    <dc:type rdf:resource="http://purl.org/dc/dcmitype/StillImage"/>
    <dc:date>2024-11-04T14:09:23.082535</dc:date>
    <dc:format>image/svg+xml</dc:format>
    <dc:creator>
     <cc:Agent>
      <dc:title>Matplotlib v3.4.0, https://matplotlib.org/</dc:title>
     </cc:Agent>
    </dc:creator>
   </cc:Work>
  </rdf:RDF>
 </metadata>
 <defs>
  <style type="text/css">*{stroke-linecap:butt;stroke-linejoin:round;}</style>
 </defs>
 <g id="figure_1">
  <g id="patch_1">
   <path d="M 0 180 
L 360 180 
L 360 0 
L 0 0 
z
" style="fill:#ffffff;"/>
  </g>
  <g id="axes_1">
   <g id="patch_2">
    <path d="M 47.24 143.08 
L 249.55 143.08 
L 249.55 11.52 
L 47.24 11.52 
z
" style="fill:#ffffff;"/>
   </g>
   <g id="PolyCollection_1">
    <defs>
     <path d="M 47.24 -36.92 
L 47.24 -36.92 
L 50.611833 -36.92 
L 53.983667 -36.921242 
L 57.3555 -43.066813 
L 60.727333 -62.598094 
L 64.099167 -91.517413 
L 67.471 -119.144335 
L 70.842833 -136.230551 
L 74.214667 -144.288375 
L 77.5865 -148.953556 
L 80.958333 -152.647481 
L 84.330167 -156.365257 
L 87.702 -159.409 
L 91.073833 -161.397118 
L 94.445667 -163.000495 
L 97.8175 -163.818617 
L 101.189333 -164.250181 
L 104.561167 -164.681746 
L 107.933 -165.11331 
L 111.304833 -165.577333 
L 114.676667 -166.041357 
L 118.0485 -166.50538 
L 121.420333 -166.50538 
L 124.792167 -166.50538 
L 128.164 -166.50538 
L 131.535833 -166.50538 
L 134.907667 -166.50538 
L 138.2795 -166.50538 
L 141.651333 -166.50538 
L 145.023167 -166.50538 
L 148.395 -166.50538 
L 151.766833 -166.50538 
L 155.138667 -166.50538 
L 158.5105 -167.163587 
L 161.882333 -167.821793 
L 165.254167 -168.48 
L 168.626 -168.48 
L 168.626 -168.48 
L 168.626 -168.48 
L 165.254167 -168.48 
L 161.882333 -168.478758 
L 158.5105 -168.477516 
L 155.138667 -168.476274 
L 151.766833 -168.476274 
L 148.395 -168.476274 
L 145.023167 -168.476274 
L 141.651333 -168.476274 
L 138.2795 -168.476274 
L 134.907667 -168.476274 
L 131.535833 -168.476274 
L 128.164 -168.476274 
L 124.792167 -168.476274 
L 121.420333 -168.476274 
L 118.0485 -168.476274 
L 114.676667 -168.280849 
L 111.304833 -168.085423 
L 107.933 -167.889998 
L 104.561167 -167.662114 
L 101.189333 -167.43423 
L 97.8175 -167.206346 
L 94.445667 -166.70557 
L 91.073833 -165.671153 
L 87.702 -164.362027 
L 84.330167 -162.130182 
L 80.958333 -159.253472 
L 77.5865 -156.35291 
L 74.214667 -152.445259 
L 70.842833 -145.335765 
L 67.471 -129.44955 
L 64.099167 -101.682787 
L 60.727333 -69.932833 
L 57.3555 -46.599954 
L 53.983667 -37.578207 
L 50.611833 -36.92 
L 47.24 -36.92 
z
" id="madca95c69c" style="stroke:#9400d3;stroke-opacity:0.3;"/>
    </defs>
    <g clip-path="url(#p76a7edf013)">
     <use style="fill:#9400d3;fill-opacity:0.3;stroke:#9400d3;stroke-opacity:0.3;" x="0" xlink:href="#madca95c69c" y="180"/>
    </g>
   </g>
   <g id="PolyCollection_2">
    <defs>
     <path d="M 47.24 -36.92 
L 47.24 -36.92 
L 50.611833 -36.92 
L 53.983667 -37.344551 
L 57.3555 -39.639079 
L 60.727333 -47.941514 
L 64.099167 -63.779162 
L 67.471 -84.32827 
L 70.842833 -103.58215 
L 74.214667 -117.269515 
L 77.5865 -126.450056 
L 80.958333 -133.018349 
L 84.330167 -138.255326 
L 87.702 -142.489101 
L 91.073833 -145.705213 
L 94.445667 -148.588886 
L 97.8175 -150.76861 
L 101.189333 -152.606882 
L 104.561167 -154.090042 
L 107.933 -156.34853 
L 111.304833 -158.255296 
L 114.676667 -159.78768 
L 118.0485 -160.976498 
L 121.420333 -162.190278 
L 124.792167 -163.404057 
L 128.164 -163.818617 
L 131.535833 -163.818617 
L 134.907667 -163.818617 
L 138.2795 -163.818617 
L 141.651333 -164.250181 
L 145.023167 -164.681746 
L 148.395 -165.11331 
L 151.766833 -165.11331 
L 155.138667 -165.11331 
L 158.5105 -166.23554 
L 161.882333 -167.35777 
L 165.254167 -168.48 
L 168.626 -168.48 
L 168.626 -168.48 
L 168.626 -168.48 
L 165.254167 -168.48 
L 161.882333 -168.283333 
L 158.5105 -168.086665 
L 155.138667 -167.889998 
L 151.766833 -167.889998 
L 148.395 -167.889998 
L 145.023167 -167.662114 
L 141.651333 -167.43423 
L 138.2795 -167.206346 
L 134.907667 -167.206346 
L 131.535833 -167.206346 
L 128.164 -167.206346 
L 124.792167 -166.961456 
L 121.420333 -166.19689 
L 118.0485 -165.432324 
L 114.676667 -164.642796 
L 111.304833 -163.537386 
L 107.933 -162.146909 
L 104.561167 -160.448705 
L 101.189333 -159.29407 
L 97.8175 -157.8351 
L 94.445667 -156.058132 
L 91.073833 -153.666215 
L 87.702 -150.94729 
L 84.330167 -147.267682 
L 80.958333 -142.612929 
L 77.5865 -136.651699 
L 74.214667 -128.027126 
L 70.842833 -114.677099 
L 67.471 -95.02351 
L 64.099167 -72.708457 
L 60.727333 -54.254777 
L 57.3555 -42.773753 
L 53.983667 -38.473794 
L 50.611833 -36.92 
L 47.24 -36.92 
z
" id="mb09eacf9d8" style="stroke:#ff9b00;stroke-opacity:0.3;"/>
    </defs>
    <g clip-path="url(#p76a7edf013)">
     <use style="fill:#ff9b00;fill-opacity:0.3;stroke:#ff9b00;stroke-opacity:0.3;" x="0" xlink:href="#mb09eacf9d8" y="180"/>
    </g>
   </g>
   <g id="PolyCollection_3">
    <defs>
     <path d="M 47.24 -36.92 
L 47.24 -36.92 
L 50.611833 -36.92 
L 53.983667 -36.92 
L 57.3555 -36.92 
L 60.727333 -37.408125 
L 64.099167 -39.850829 
L 67.471 -45.046088 
L 70.842833 -52.244504 
L 74.214667 -61.309637 
L 77.5865 -72.124663 
L 80.958333 -82.203555 
L 84.330167 -90.230287 
L 87.702 -96.957297 
L 91.073833 -102.347195 
L 94.445667 -106.563657 
L 97.8175 -109.918179 
L 101.189333 -113.108671 
L 104.561167 -115.774955 
L 107.933 -118.091088 
L 111.304833 -119.882387 
L 114.676667 -121.31718 
L 118.0485 -122.215609 
L 121.420333 -123.115202 
L 124.792167 -123.835342 
L 128.164 -124.921477 
L 131.535833 -126.371781 
L 134.907667 -128.004596 
L 138.2795 -129.457019 
L 141.651333 -131.275359 
L 145.023167 -132.187956 
L 148.395 -132.919807 
L 151.766833 -133.469146 
L 155.138667 -134.018486 
L 158.5105 -134.201909 
L 161.882333 -134.385331 
L 165.254167 -134.385331 
L 168.626 -134.385331 
L 171.997833 -134.385331 
L 175.369667 -134.385331 
L 178.7415 -134.385331 
L 182.113333 -134.569076 
L 185.485167 -134.752821 
L 188.857 -135.120644 
L 192.228833 -135.488466 
L 195.600667 -135.856289 
L 198.9725 -136.040367 
L 202.344333 -136.224444 
L 205.716167 -136.224444 
L 209.088 -136.224444 
L 212.459833 -136.224444 
L 215.831667 -136.224444 
L 219.2035 -136.408866 
L 222.575333 -136.593288 
L 225.947167 -136.77771 
L 229.319 -136.962131 
L 232.690833 -137.146553 
L 236.062667 -137.146553 
L 239.4345 -137.331331 
L 239.4345 -145.959159 
L 239.4345 -145.959159 
L 236.062667 -145.795434 
L 232.690833 -145.795434 
L 229.319 -145.631352 
L 225.947167 -145.467271 
L 222.575333 -145.303189 
L 219.2035 -145.139107 
L 215.831667 -144.975026 
L 212.459833 -144.975026 
L 209.088 -144.975026 
L 205.716167 -144.975026 
L 202.344333 -144.975026 
L 198.9725 -144.8106 
L 195.600667 -144.646174 
L 192.228833 -144.31699 
L 188.857 -143.987806 
L 185.485167 -143.658622 
L 182.113333 -143.493864 
L 178.7415 -143.329106 
L 175.369667 -143.329106 
L 171.997833 -143.329106 
L 168.626 -143.329106 
L 165.254167 -143.329106 
L 161.882333 -143.329106 
L 158.5105 -143.164025 
L 155.138667 -142.998944 
L 151.766833 -142.502774 
L 148.395 -142.006604 
L 145.023167 -141.344442 
L 141.651333 -140.514522 
L 138.2795 -138.847829 
L 134.907667 -137.512225 
L 131.535833 -136.008511 
L 128.164 -134.670788 
L 124.792167 -133.665903 
L 121.420333 -132.992029 
L 118.0485 -132.149106 
L 114.676667 -131.305018 
L 111.304833 -129.951786 
L 107.933 -128.258051 
L 104.561167 -126.043641 
L 101.189333 -123.482375 
L 97.8175 -120.399808 
L 94.445667 -117.132766 
L 91.073833 -112.985149 
L 87.702 -107.571445 
L 84.330167 -100.706826 
L 80.958333 -92.353902 
L 77.5865 -81.522595 
L 74.214667 -69.336402 
L 70.842833 -58.188343 
L 67.471 -49.007104 
L 64.099167 -42.004747 
L 60.727333 -38.174392 
L 57.3555 -36.92 
L 53.983667 -36.92 
L 50.611833 -36.92 
L 47.24 -36.92 
z
" id="mc1c7039012" style="stroke:#00ff00;stroke-opacity:0.3;"/>
    </defs>
    <g clip-path="url(#p76a7edf013)">
     <use style="fill:#00ff00;fill-opacity:0.3;stroke:#00ff00;stroke-opacity:0.3;" x="0" xlink:href="#mc1c7039012" y="180"/>
    </g>
   </g>
   <g id="PolyCollection_4">
    <path clip-path="url(#p76a7edf013)" d="M 47.24 143.08 
L 47.24 143.08 
L 50.611833 143.08 
L 53.983667 143.08 
L 57.3555 143.053227 
L 60.727333 143.026454 
L 64.099167 142.999681 
L 67.471 142.972908 
L 70.842833 142.810894 
L 74.214667 142.459754 
L 77.5865 141.990508 
L 80.958333 141.279023 
L 84.330167 140.27819 
L 87.702 138.813182 
L 91.073833 137.048434 
L 94.445667 135.024635 
L 97.8175 132.65281 
L 101.189333 130.018216 
L 104.561167 127.146262 
L 107.933 124.185976 
L 111.304833 120.871006 
L 114.676667 117.377904 
L 118.0485 113.751901 
L 121.420333 110.270224 
L 124.792167 106.727148 
L 128.164 103.381361 
L 131.535833 100.14481 
L 134.907667 97.19184 
L 138.2795 94.402849 
L 141.651333 91.782249 
L 145.023167 89.418896 
L 148.395 87.227411 
L 151.766833 85.254562 
L 155.138667 83.142101 
L 158.5105 81.292929 
L 161.882333 79.576144 
L 165.254167 78.035917 
L 168.626 76.494649 
L 171.997833 75.041106 
L 175.369667 73.632516 
L 178.7415 72.358098 
L 182.113333 71.264275 
L 185.485167 70.260242 
L 188.857 69.346868 
L 192.228833 68.47827 
L 195.600667 67.700574 
L 198.9725 66.830159 
L 202.344333 66.187689 
L 205.716167 65.636614 
L 209.088 65.131284 
L 212.459833 64.717539 
L 215.831667 64.349635 
L 219.2035 64.027368 
L 222.575333 63.705102 
L 225.947167 63.428774 
L 229.319 63.152446 
L 232.690833 62.78346 
L 236.062667 62.414475 
L 239.4345 62.045214 
L 242.806333 61.629636 
L 246.178167 61.352273 
L 249.55 61.028557 
L 252.921833 60.70484 
L 256.293667 60.381124 
L 259.6655 59.964591 
L 263.037333 59.501594 
L 266.409167 59.084736 
L 269.781 58.528252 
L 273.152833 57.971767 
L 276.524667 57.368662 
L 279.8965 56.904185 
L 283.268333 56.439707 
L 286.640167 56.02151 
L 290.012 55.649629 
L 293.383833 55.277748 
L 296.755667 54.905558 
L 300.1275 54.533368 
L 303.499333 54.161178 
L 306.871167 53.881804 
L 310.243 53.648895 
L 313.614833 53.415987 
L 316.986667 53.322704 
L 320.3585 53.229421 
L 323.730333 53.18276 
L 327.102167 53.136098 
L 330.474 53.042734 
L 333.845833 52.902625 
L 337.217667 52.762516 
L 340.5895 52.622408 
L 343.961333 52.52896 
L 347.333167 52.435513 
L 350.705 52.342066 
L 354.076833 52.248619 
L 357.448667 52.155172 
L 360.8205 52.014938 
L 364.192333 51.874704 
L 367.564167 51.73447 
L 370.936 51.594236 
L 374.307833 51.454002 
L 377.679667 51.36047 
L 381.0515 51.313683 
L 384.423333 51.266896 
L 387.795167 51.22011 
L 391.167 51.126493 
L 394.538833 51.032876 
L 397.910667 50.939259 
L 401.2825 50.845642 
L 404.654333 50.752025 
L 408.026167 50.705195 
L 411.398 50.658365 
L 414.769833 50.564661 
L 418.141667 50.424038 
L 421.5135 50.236452 
L 424.885333 50.048865 
L 428.257167 49.861278 
L 431.629 49.673691 
L 435.000833 49.486105 
L 438.372667 49.345348 
L 441.7445 49.204591 
L 445.116333 49.063835 
L 448.488167 48.923078 
L 451.86 48.782321 
L 455.231833 48.641565 
L 458.603667 48.500808 
L 461.9755 48.406925 
L 465.347333 48.359961 
L 468.719167 48.359961 
L 472.091 48.359961 
L 475.462833 48.359961 
L 478.834667 48.359961 
L 482.2065 48.359961 
L 485.578333 48.359961 
L 488.950167 48.359961 
L 492.322 48.359961 
L 495.693833 48.359961 
L 499.065667 48.359961 
L 502.4375 48.359961 
L 505.809333 48.359961 
L 509.181167 48.359961 
L 512.553 48.359961 
L 515.924833 48.359961 
L 519.296667 48.359961 
L 522.6685 48.359961 
L 526.040333 48.359961 
L 529.412167 48.359961 
L 532.784 48.312951 
L 532.784 40.416692 
L 532.784 40.416692 
L 529.412167 40.460039 
L 526.040333 40.460039 
L 522.6685 40.460039 
L 519.296667 40.460039 
L 515.924833 40.460039 
L 512.553 40.460039 
L 509.181167 40.460039 
L 505.809333 40.460039 
L 502.4375 40.460039 
L 499.065667 40.460039 
L 495.693833 40.460039 
L 492.322 40.460039 
L 488.950167 40.460039 
L 485.578333 40.460039 
L 482.2065 40.460039 
L 478.834667 40.460039 
L 475.462833 40.460039 
L 472.091 40.460039 
L 468.719167 40.460039 
L 465.347333 40.460039 
L 461.9755 40.503432 
L 458.603667 40.590263 
L 455.231833 40.720578 
L 451.86 40.850893 
L 448.488167 40.981208 
L 445.116333 41.111522 
L 441.7445 41.241837 
L 438.372667 41.372152 
L 435.000833 41.502467 
L 431.629 41.676309 
L 428.257167 41.85015 
L 424.885333 42.023992 
L 421.5135 42.197834 
L 418.141667 42.371676 
L 414.769833 42.502125 
L 411.398 42.589135 
L 408.026167 42.632662 
L 404.654333 42.676189 
L 401.2825 42.763287 
L 397.910667 42.850384 
L 394.538833 42.937481 
L 391.167 43.024579 
L 387.795167 43.111676 
L 384.423333 43.155246 
L 381.0515 43.198817 
L 377.679667 43.242387 
L 374.307833 43.32957 
L 370.936 43.460407 
L 367.564167 43.591245 
L 364.192333 43.722082 
L 360.8205 43.852919 
L 357.448667 43.983757 
L 354.076833 44.071024 
L 350.705 44.158291 
L 347.333167 44.245558 
L 343.961333 44.332825 
L 340.5895 44.420092 
L 337.217667 44.551055 
L 333.845833 44.682018 
L 330.474 44.812981 
L 327.102167 44.900331 
L 323.730333 44.944026 
L 320.3585 44.987722 
L 316.986667 45.075153 
L 313.614833 45.162585 
L 310.243 45.381462 
L 306.871167 45.600339 
L 303.499333 45.863108 
L 300.1275 46.213775 
L 296.755667 46.564442 
L 293.383833 46.915109 
L 290.012 47.266085 
L 286.640167 47.617061 
L 283.268333 48.012078 
L 279.8965 48.451172 
L 276.524667 48.890266 
L 273.152833 49.461804 
L 269.781 49.989606 
L 266.409167 50.517407 
L 263.037333 50.913763 
L 259.6655 51.354337 
L 256.293667 51.751019 
L 252.921833 52.059803 
L 249.55 52.368586 
L 246.178167 52.67737 
L 242.806333 52.942149 
L 239.4345 53.339786 
L 236.062667 53.693382 
L 232.690833 54.047254 
L 229.319 54.401126 
L 225.947167 54.66694 
L 222.575333 54.932755 
L 219.2035 55.242989 
L 215.831667 55.553223 
L 212.459833 55.908175 
L 209.088 56.307644 
L 205.716167 56.796243 
L 202.344333 57.329454 
L 198.9725 57.951983 
L 195.600667 58.798355 
L 192.228833 59.55673 
L 188.857 60.404917 
L 185.485167 61.298686 
L 182.113333 62.282511 
L 178.7415 63.357259 
L 175.369667 64.612841 
L 171.997833 66.005322 
L 168.626 67.443209 
L 165.254167 68.974083 
L 161.882333 70.505999 
L 158.5105 72.222785 
L 155.138667 74.078256 
L 151.766833 76.21258 
L 148.395 78.215446 
L 145.023167 80.451461 
L 141.651333 82.877036 
L 138.2795 85.587509 
L 134.907667 88.491017 
L 131.535833 91.591976 
L 128.164 95.041853 
L 124.792167 98.653566 
L 121.420333 102.519776 
L 118.0485 106.357027 
L 114.676667 110.411381 
L 111.304833 114.417923 
L 107.933 118.241166 
L 104.561167 121.696238 
L 101.189333 125.058927 
L 97.8175 128.297547 
L 94.445667 131.256794 
L 91.073833 133.841209 
L 87.702 136.142532 
L 84.330167 138.111096 
L 80.958333 139.549906 
L 77.5865 140.645563 
L 74.214667 141.441318 
L 70.842833 142.084106 
L 67.471 142.464234 
L 64.099167 142.618176 
L 60.727333 142.772117 
L 57.3555 142.926059 
L 53.983667 143.08 
L 50.611833 143.08 
L 47.24 143.08 
z
" style="fill:#ffd700;fill-opacity:0.3;stroke:#ffd700;stroke-opacity:0.3;"/>
   </g>
   <g id="PolyCollection_5">
    <path clip-path="url(#p76a7edf013)" d="M 47.24 143.08 
L 47.24 143.08 
L 50.611833 143.08 
L 53.983667 143.08 
L 57.3555 142.974037 
L 60.727333 142.699758 
L 64.099167 142.20068 
L 67.471 141.278606 
L 70.842833 139.871593 
L 74.214667 137.870051 
L 77.5865 135.466607 
L 80.958333 132.606743 
L 84.330167 129.132233 
L 87.702 124.984867 
L 91.073833 120.367703 
L 94.445667 115.382944 
L 97.8175 109.922724 
L 101.189333 104.143083 
L 104.561167 98.264517 
L 107.933 92.342399 
L 111.304833 86.681707 
L 114.676667 81.289844 
L 118.0485 76.38415 
L 121.420333 71.717415 
L 124.792167 67.289053 
L 128.164 63.256321 
L 131.535833 59.841528 
L 134.907667 56.620901 
L 138.2795 53.54597 
L 141.651333 50.835032 
L 145.023167 48.549478 
L 148.395 46.47529 
L 151.766833 44.557403 
L 155.138667 42.688605 
L 158.5105 40.922969 
L 161.882333 39.265693 
L 165.254167 37.714696 
L 168.626 36.324943 
L 171.997833 35.097262 
L 175.369667 33.924497 
L 178.7415 33.027366 
L 182.113333 32.237775 
L 185.485167 31.386787 
L 188.857 30.535799 
L 192.228833 29.740686 
L 195.600667 29.057623 
L 198.9725 28.48704 
L 202.344333 27.91311 
L 205.716167 27.28066 
L 209.088 26.646075 
L 212.459833 26.00918 
L 215.831667 25.36977 
L 219.2035 24.670507 
L 222.575333 23.971245 
L 225.947167 23.326036 
L 229.319 22.853694 
L 232.690833 22.381351 
L 236.062667 21.848182 
L 239.4345 21.191367 
L 242.806333 20.471409 
L 246.178167 19.867747 
L 249.55 19.322605 
L 252.921833 18.771887 
L 256.293667 18.280279 
L 259.6655 17.848131 
L 263.037333 17.475836 
L 266.409167 17.103541 
L 269.781 16.791548 
L 273.152833 16.479556 
L 276.524667 16.101462 
L 279.8965 15.715417 
L 283.268333 15.453019 
L 286.640167 15.253762 
L 290.012 15.054506 
L 293.383833 14.85525 
L 296.755667 14.720371 
L 300.1275 14.585491 
L 303.499333 14.450612 
L 306.871167 14.315733 
L 310.243 14.180854 
L 313.614833 14.045975 
L 316.986667 13.911096 
L 320.3585 13.768413 
L 323.730333 13.694507 
L 327.102167 13.620602 
L 330.474 13.546697 
L 333.845833 13.472791 
L 337.217667 13.398886 
L 340.5895 13.32498 
L 343.961333 13.251075 
L 347.333167 13.177169 
L 350.705 13.103264 
L 354.076833 13.029359 
L 357.448667 12.955453 
L 360.8205 12.881548 
L 364.192333 12.881548 
L 367.564167 12.881548 
L 370.936 12.881548 
L 374.307833 12.881548 
L 377.679667 12.881548 
L 381.0515 12.881548 
L 384.423333 12.881548 
L 387.795167 12.881548 
L 391.167 12.881548 
L 394.538833 12.881548 
L 397.910667 12.881548 
L 401.2825 12.881548 
L 404.654333 12.881548 
L 408.026167 12.881548 
L 411.398 12.881548 
L 414.769833 12.881548 
L 418.141667 12.881548 
L 421.5135 12.881548 
L 424.885333 12.881548 
L 428.257167 12.881548 
L 431.629 12.881548 
L 435.000833 12.881548 
L 438.372667 12.881548 
L 441.7445 12.881548 
L 445.116333 12.881548 
L 448.488167 12.881548 
L 451.86 12.881548 
L 455.231833 12.881548 
L 458.603667 12.881548 
L 461.9755 12.881548 
L 465.347333 12.881548 
L 468.719167 12.881548 
L 472.091 12.881548 
L 475.462833 12.881548 
L 478.834667 12.881548 
L 482.2065 12.881548 
L 485.578333 12.881548 
L 488.950167 12.881548 
L 492.322 12.881548 
L 495.693833 12.881548 
L 499.065667 12.881548 
L 502.4375 12.881548 
L 505.809333 12.881548 
L 509.181167 12.881548 
L 512.553 12.776813 
L 515.924833 12.672079 
L 519.296667 12.567344 
L 522.6685 12.46261 
L 526.040333 12.357876 
L 529.412167 12.253141 
L 532.784 12.148407 
L 536.155833 12.043672 
L 539.527667 11.938938 
L 542.8995 11.834203 
L 546.271333 11.729469 
L 549.643167 11.624734 
L 553.015 11.52 
L 556.386833 11.52 
L 556.386833 11.52 
L 556.386833 11.52 
L 553.015 11.52 
L 549.643167 11.520136 
L 546.271333 11.520272 
L 542.8995 11.520408 
L 539.527667 11.520544 
L 536.155833 11.52068 
L 532.784 11.520816 
L 529.412167 11.520952 
L 526.040333 11.521088 
L 522.6685 11.521224 
L 519.296667 11.52136 
L 515.924833 11.521496 
L 512.553 11.521632 
L 509.181167 11.521768 
L 505.809333 11.521768 
L 502.4375 11.521768 
L 499.065667 11.521768 
L 495.693833 11.521768 
L 492.322 11.521768 
L 488.950167 11.521768 
L 485.578333 11.521768 
L 482.2065 11.521768 
L 478.834667 11.521768 
L 475.462833 11.521768 
L 472.091 11.521768 
L 468.719167 11.521768 
L 465.347333 11.521768 
L 461.9755 11.521768 
L 458.603667 11.521768 
L 455.231833 11.521768 
L 451.86 11.521768 
L 448.488167 11.521768 
L 445.116333 11.521768 
L 441.7445 11.521768 
L 438.372667 11.521768 
L 435.000833 11.521768 
L 431.629 11.521768 
L 428.257167 11.521768 
L 424.885333 11.521768 
L 421.5135 11.521768 
L 418.141667 11.521768 
L 414.769833 11.521768 
L 411.398 11.521768 
L 408.026167 11.521768 
L 404.654333 11.521768 
L 401.2825 11.521768 
L 397.910667 11.521768 
L 394.538833 11.521768 
L 391.167 11.521768 
L 387.795167 11.521768 
L 384.423333 11.521768 
L 381.0515 11.521768 
L 377.679667 11.521768 
L 374.307833 11.521768 
L 370.936 11.521768 
L 367.564167 11.521768 
L 364.192333 11.521768 
L 360.8205 11.521768 
L 357.448667 11.552733 
L 354.076833 11.583698 
L 350.705 11.614663 
L 347.333167 11.645628 
L 343.961333 11.676594 
L 340.5895 11.707559 
L 337.217667 11.738524 
L 333.845833 11.769489 
L 330.474 11.800454 
L 327.102167 11.831419 
L 323.730333 11.862384 
L 320.3585 11.893349 
L 316.986667 11.960407 
L 313.614833 12.035268 
L 310.243 12.11013 
L 306.871167 12.184992 
L 303.499333 12.259854 
L 300.1275 12.334716 
L 296.755667 12.409578 
L 293.383833 12.484439 
L 290.012 12.599795 
L 286.640167 12.71515 
L 283.268333 12.830505 
L 279.8965 12.987588 
L 276.524667 13.230766 
L 273.152833 13.481895 
L 269.781 13.694255 
L 266.409167 13.906615 
L 263.037333 14.163542 
L 259.6655 14.42047 
L 256.293667 14.722415 
L 252.921833 15.069771 
L 249.55 15.462887 
L 246.178167 15.861579 
L 242.806333 16.306622 
L 239.4345 16.84511 
L 236.062667 17.34187 
L 232.690833 17.752535 
L 229.319 18.119156 
L 225.947167 18.485777 
L 222.575333 18.994144 
L 219.2035 19.553327 
L 215.831667 20.11251 
L 212.459833 20.626675 
L 209.088 21.143355 
L 205.716167 21.662345 
L 202.344333 22.18347 
L 198.9725 22.658245 
L 195.600667 23.136366 
L 192.228833 23.711749 
L 188.857 24.384823 
L 185.485167 25.106892 
L 182.113333 25.82896 
L 178.7415 26.507556 
L 175.369667 27.288353 
L 171.997833 28.317867 
L 168.626 29.397336 
L 165.254167 30.629346 
L 161.882333 32.014721 
L 158.5105 33.50356 
L 155.138667 35.093778 
L 151.766833 36.790576 
L 148.395 38.543155 
L 145.023167 40.454045 
L 141.651333 42.573051 
L 138.2795 45.105636 
L 134.907667 48.008322 
L 131.535833 51.079923 
L 128.164 54.37684 
L 124.792167 58.314264 
L 121.420333 62.695021 
L 118.0485 67.361756 
L 114.676667 72.313886 
L 111.304833 77.828552 
L 107.933 83.703612 
L 104.561167 89.946468 
L 101.189333 96.232876 
L 97.8175 102.513338 
L 94.445667 108.69374 
L 91.073833 114.405769 
L 87.702 119.751299 
L 84.330167 124.622793 
L 80.958333 128.803827 
L 77.5865 132.341061 
L 74.214667 135.390882 
L 70.842833 138.00364 
L 67.471 139.952482 
L 64.099167 141.337559 
L 60.727333 142.201796 
L 57.3555 142.766481 
L 53.983667 143.08 
L 50.611833 143.08 
L 47.24 143.08 
z
" style="fill:#ff7f00;fill-opacity:0.3;stroke:#ff7f00;stroke-opacity:0.3;"/>
   </g>
   <g id="PolyCollection_6">
    <path clip-path="url(#p76a7edf013)" d="M 47.24 143.08 
L 47.24 143.08 
L 50.611833 143.08 
L 53.983667 143.079432 
L 57.3555 142.797536 
L 60.727333 142.435199 
L 64.099167 141.560052 
L 67.471 140.596135 
L 70.842833 139.270918 
L 74.214667 137.9457 
L 77.5865 136.344179 
L 80.958333 134.368572 
L 84.330167 132.298553 
L 87.702 129.943361 
L 91.073833 127.300303 
L 94.445667 124.560726 
L 97.8175 121.529987 
L 101.189333 118.008863 
L 104.561167 113.991788 
L 107.933 110.055741 
L 111.304833 105.897856 
L 114.676667 102.050022 
L 118.0485 97.779547 
L 121.420333 93.870374 
L 124.792167 89.754733 
L 128.164 85.707764 
L 131.535833 81.826017 
L 134.907667 77.722885 
L 138.2795 73.692555 
L 141.651333 69.950092 
L 145.023167 66.090135 
L 148.395 62.52134 
L 151.766833 59.44293 
L 155.138667 56.861038 
L 158.5105 54.479447 
L 161.882333 51.966306 
L 165.254167 49.546036 
L 168.626 47.637178 
L 171.997833 45.617756 
L 175.369667 43.804801 
L 178.7415 42.199477 
L 182.113333 40.803017 
L 185.485167 39.611043 
L 188.857 38.631439 
L 192.228833 37.651834 
L 195.600667 36.886243 
L 198.9725 36.120651 
L 202.344333 35.35506 
L 205.716167 34.47732 
L 209.088 33.599581 
L 212.459833 33.15567 
L 215.831667 32.821646 
L 219.2035 32.487622 
L 222.575333 32.151067 
L 225.947167 31.700329 
L 229.319 31.134131 
L 232.690833 30.567932 
L 236.062667 30.113046 
L 239.4345 29.65816 
L 242.806333 29.203274 
L 246.178167 28.748387 
L 249.55 28.293501 
L 252.921833 27.838615 
L 256.293667 27.378885 
L 259.6655 26.919155 
L 263.037333 26.459425 
L 266.409167 25.880803 
L 269.781 25.302181 
L 273.152833 24.836654 
L 276.524667 24.48531 
L 279.8965 24.249427 
L 283.268333 24.013543 
L 286.640167 23.777659 
L 290.012 23.541775 
L 293.383833 23.305891 
L 296.755667 23.070007 
L 300.1275 22.834123 
L 303.499333 22.598239 
L 306.871167 22.479347 
L 310.243 22.360455 
L 313.614833 22.241564 
L 316.986667 22.241564 
L 320.3585 22.241564 
L 323.730333 22.241564 
L 327.102167 22.12021 
L 330.474 21.874098 
L 333.845833 21.498 
L 337.217667 21.121901 
L 340.5895 20.745803 
L 343.961333 20.369704 
L 347.333167 19.993606 
L 350.705 19.617507 
L 354.076833 19.241409 
L 357.448667 18.86531 
L 360.8205 18.489212 
L 364.192333 18.113113 
L 367.564167 17.737015 
L 370.936 17.360916 
L 374.307833 16.984818 
L 377.679667 16.730073 
L 381.0515 16.600086 
L 384.423333 16.600086 
L 387.795167 16.600086 
L 391.167 16.600086 
L 394.538833 16.600086 
L 397.910667 16.600086 
L 401.2825 16.600086 
L 404.654333 16.600086 
L 408.026167 16.600086 
L 411.398 16.600086 
L 414.769833 16.600086 
L 418.141667 16.600086 
L 421.5135 16.600086 
L 424.885333 16.600086 
L 428.257167 16.600086 
L 431.629 16.600086 
L 435.000833 16.460179 
L 438.372667 16.320272 
L 441.7445 16.180365 
L 445.116333 16.040458 
L 448.488167 15.900551 
L 451.86 15.760644 
L 455.231833 15.620737 
L 458.603667 15.48083 
L 461.9755 15.340923 
L 465.347333 15.201016 
L 468.719167 15.061109 
L 472.091 14.921202 
L 475.462833 14.781295 
L 478.834667 14.641388 
L 482.2065 14.501481 
L 485.578333 14.501481 
L 488.950167 14.501481 
L 492.322 14.501481 
L 495.693833 14.501481 
L 499.065667 14.501481 
L 502.4375 14.501481 
L 505.809333 14.501481 
L 509.181167 14.501481 
L 512.553 14.501481 
L 515.924833 14.501481 
L 519.296667 14.501481 
L 522.6685 14.501481 
L 526.040333 14.501481 
L 529.412167 14.501481 
L 532.784 14.501481 
L 536.155833 14.501481 
L 539.527667 14.501481 
L 542.8995 14.501481 
L 546.271333 14.501481 
L 549.643167 14.501481 
L 553.015 14.302716 
L 556.386833 14.103951 
L 559.758667 13.905185 
L 563.1305 13.70642 
L 566.502333 13.507654 
L 569.874167 13.308889 
L 573.246 13.110123 
L 576.617833 12.911358 
L 579.989667 12.712593 
L 583.3615 12.513827 
L 586.733333 12.315062 
L 590.105167 12.116296 
L 593.477 11.917531 
L 596.848833 11.718765 
L 600.220667 11.52 
L 603.5925 11.52 
L 603.5925 11.52 
L 603.5925 11.52 
L 600.220667 11.52 
L 596.848833 11.520568 
L 593.477 11.521136 
L 590.105167 11.521704 
L 586.733333 11.522272 
L 583.3615 11.52284 
L 579.989667 11.523407 
L 576.617833 11.523975 
L 573.246 11.524543 
L 569.874167 11.525111 
L 566.502333 11.525679 
L 563.1305 11.526247 
L 559.758667 11.526815 
L 556.386833 11.527383 
L 553.015 11.527951 
L 549.643167 11.528519 
L 546.271333 11.528519 
L 542.8995 11.528519 
L 539.527667 11.528519 
L 536.155833 11.528519 
L 532.784 11.528519 
L 529.412167 11.528519 
L 526.040333 11.528519 
L 522.6685 11.528519 
L 519.296667 11.528519 
L 515.924833 11.528519 
L 512.553 11.528519 
L 509.181167 11.528519 
L 505.809333 11.528519 
L 502.4375 11.528519 
L 499.065667 11.528519 
L 495.693833 11.528519 
L 492.322 11.528519 
L 488.950167 11.528519 
L 485.578333 11.528519 
L 482.2065 11.528519 
L 478.834667 11.587945 
L 475.462833 11.647371 
L 472.091 11.706798 
L 468.719167 11.766224 
L 465.347333 11.825651 
L 461.9755 11.885077 
L 458.603667 11.944503 
L 455.231833 12.00393 
L 451.86 12.063356 
L 448.488167 12.122782 
L 445.116333 12.182209 
L 441.7445 12.241635 
L 438.372667 12.301062 
L 435.000833 12.360488 
L 431.629 12.419914 
L 428.257167 12.419914 
L 424.885333 12.419914 
L 421.5135 12.419914 
L 418.141667 12.419914 
L 414.769833 12.419914 
L 411.398 12.419914 
L 408.026167 12.419914 
L 404.654333 12.419914 
L 401.2825 12.419914 
L 397.910667 12.419914 
L 394.538833 12.419914 
L 391.167 12.419914 
L 387.795167 12.419914 
L 384.423333 12.419914 
L 381.0515 12.419914 
L 377.679667 12.48926 
L 374.307833 12.633182 
L 370.936 12.855084 
L 367.564167 13.076985 
L 364.192333 13.298887 
L 360.8205 13.520788 
L 357.448667 13.74269 
L 354.076833 13.964591 
L 350.705 14.186493 
L 347.333167 14.408394 
L 343.961333 14.630296 
L 340.5895 14.852197 
L 337.217667 15.074099 
L 333.845833 15.296 
L 330.474 15.517902 
L 327.102167 15.670457 
L 323.730333 15.748436 
L 320.3585 15.748436 
L 316.986667 15.748436 
L 313.614833 15.748436 
L 310.243 15.828878 
L 306.871167 15.909319 
L 303.499333 15.989761 
L 300.1275 16.152543 
L 296.755667 16.315326 
L 293.383833 16.478109 
L 290.012 16.640892 
L 286.640167 16.803675 
L 283.268333 16.966457 
L 279.8965 17.12924 
L 276.524667 17.292023 
L 273.152833 17.538679 
L 269.781 17.870486 
L 266.409167 18.28853 
L 263.037333 18.706575 
L 259.6655 19.044178 
L 256.293667 19.381782 
L 252.921833 19.719385 
L 249.55 20.061832 
L 246.178167 20.404279 
L 242.806333 20.746726 
L 239.4345 21.089173 
L 236.062667 21.431621 
L 232.690833 21.774068 
L 229.319 22.204536 
L 225.947167 22.635005 
L 222.575333 22.981599 
L 219.2035 23.243044 
L 215.831667 23.507021 
L 212.459833 23.770997 
L 209.088 24.124419 
L 205.716167 24.841346 
L 202.344333 25.558274 
L 198.9725 26.188015 
L 195.600667 26.817757 
L 192.228833 27.447499 
L 188.857 28.261895 
L 185.485167 29.07629 
L 182.113333 30.076983 
L 178.7415 31.271856 
L 175.369667 32.656532 
L 171.997833 34.232244 
L 168.626 36.000155 
L 165.254167 37.679297 
L 161.882333 39.843694 
L 158.5105 42.114553 
L 155.138667 44.317628 
L 151.766833 46.71907 
L 148.395 49.62066 
L 145.023167 53.028532 
L 141.651333 56.743241 
L 138.2795 60.376111 
L 134.907667 64.319115 
L 131.535833 68.38865 
L 128.164 72.280903 
L 124.792167 76.406601 
L 121.420333 80.66296 
L 118.0485 84.727119 
L 114.676667 89.227311 
L 111.304833 93.352811 
L 107.933 97.965593 
L 104.561167 102.401545 
L 101.189333 107.155137 
L 97.8175 111.607346 
L 94.445667 115.553274 
L 91.073833 119.192364 
L 87.702 122.728639 
L 84.330167 125.954781 
L 80.958333 128.868094 
L 77.5865 131.676488 
L 74.214667 134.061634 
L 70.842833 136.125082 
L 67.471 138.188531 
L 64.099167 139.815948 
L 60.727333 141.332801 
L 57.3555 142.166464 
L 53.983667 142.881235 
L 50.611833 143.08 
L 47.24 143.08 
z
" style="fill:#ff0000;fill-opacity:0.3;stroke:#ff0000;stroke-opacity:0.3;"/>
   </g>
   <g id="matplotlib.axis_1">
    <g id="xtick_1">
     <g id="line2d_1">
      <defs>
       <path d="M 0 0 
L 0 3.5 
" id="m1c860a4644" style="stroke:#000000;stroke-width:0.8;"/>
      </defs>
      <g>
       <use style="stroke:#000000;stroke-width:0.8;" x="47.24" xlink:href="#m1c860a4644" y="143.08"/>
      </g>
     </g>
     <g id="text_1">
      <!-- 0 -->
      <g transform="translate(45.015625 155.80625)scale(0.08 -0.08)">
       <defs>
        <path d="M 266 2259 
Q 266 3072 433 3567 
Q 600 4063 929 4331 
Q 1259 4600 1759 4600 
Q 2128 4600 2406 4451 
Q 2684 4303 2865 4023 
Q 3047 3744 3150 3342 
Q 3253 2941 3253 2259 
Q 3253 1453 3087 958 
Q 2922 463 2592 192 
Q 2263 -78 1759 -78 
Q 1097 -78 719 397 
Q 266 969 266 2259 
z
M 844 2259 
Q 844 1131 1108 757 
Q 1372 384 1759 384 
Q 2147 384 2411 759 
Q 2675 1134 2675 2259 
Q 2675 3391 2411 3762 
Q 2147 4134 1753 4134 
Q 1366 4134 1134 3806 
Q 844 3388 844 2259 
z
" id="ArialMT-30" transform="scale(0.015625)"/>
       </defs>
       <use xlink:href="#ArialMT-30"/>
      </g>
     </g>
    </g>
    <g id="xtick_2">
     <g id="line2d_2">
      <g>
       <use style="stroke:#000000;stroke-width:0.8;" x="80.958333" xlink:href="#m1c860a4644" y="143.08"/>
      </g>
     </g>
     <g id="text_2">
      <!-- 10 -->
      <g transform="translate(76.509583 155.80625)scale(0.08 -0.08)">
       <defs>
        <path d="M 2384 0 
L 1822 0 
L 1822 3584 
Q 1619 3391 1289 3197 
Q 959 3003 697 2906 
L 697 3450 
Q 1169 3672 1522 3987 
Q 1875 4303 2022 4600 
L 2384 4600 
L 2384 0 
z
" id="ArialMT-31" transform="scale(0.015625)"/>
       </defs>
       <use xlink:href="#ArialMT-31"/>
       <use x="55.615234" xlink:href="#ArialMT-30"/>
      </g>
     </g>
    </g>
    <g id="xtick_3">
     <g id="line2d_3">
      <g>
       <use style="stroke:#000000;stroke-width:0.8;" x="114.676667" xlink:href="#m1c860a4644" y="143.08"/>
      </g>
     </g>
     <g id="text_3">
      <!-- 20 -->
      <g transform="translate(110.227917 155.80625)scale(0.08 -0.08)">
       <defs>
        <path d="M 3222 541 
L 3222 0 
L 194 0 
Q 188 203 259 391 
Q 375 700 629 1000 
Q 884 1300 1366 1694 
Q 2113 2306 2375 2664 
Q 2638 3022 2638 3341 
Q 2638 3675 2398 3904 
Q 2159 4134 1775 4134 
Q 1369 4134 1125 3890 
Q 881 3647 878 3216 
L 300 3275 
Q 359 3922 746 4261 
Q 1134 4600 1788 4600 
Q 2447 4600 2831 4234 
Q 3216 3869 3216 3328 
Q 3216 3053 3103 2787 
Q 2991 2522 2730 2228 
Q 2469 1934 1863 1422 
Q 1356 997 1212 845 
Q 1069 694 975 541 
L 3222 541 
z
" id="ArialMT-32" transform="scale(0.015625)"/>
       </defs>
       <use xlink:href="#ArialMT-32"/>
       <use x="55.615234" xlink:href="#ArialMT-30"/>
      </g>
     </g>
    </g>
    <g id="xtick_4">
     <g id="line2d_4">
      <g>
       <use style="stroke:#000000;stroke-width:0.8;" x="148.395" xlink:href="#m1c860a4644" y="143.08"/>
      </g>
     </g>
     <g id="text_4">
      <!-- 30 -->
      <g transform="translate(143.94625 155.80625)scale(0.08 -0.08)">
       <defs>
        <path d="M 269 1209 
L 831 1284 
Q 928 806 1161 595 
Q 1394 384 1728 384 
Q 2125 384 2398 659 
Q 2672 934 2672 1341 
Q 2672 1728 2419 1979 
Q 2166 2231 1775 2231 
Q 1616 2231 1378 2169 
L 1441 2663 
Q 1497 2656 1531 2656 
Q 1891 2656 2178 2843 
Q 2466 3031 2466 3422 
Q 2466 3731 2256 3934 
Q 2047 4138 1716 4138 
Q 1388 4138 1169 3931 
Q 950 3725 888 3313 
L 325 3413 
Q 428 3978 793 4289 
Q 1159 4600 1703 4600 
Q 2078 4600 2393 4439 
Q 2709 4278 2876 4000 
Q 3044 3722 3044 3409 
Q 3044 3113 2884 2869 
Q 2725 2625 2413 2481 
Q 2819 2388 3044 2092 
Q 3269 1797 3269 1353 
Q 3269 753 2831 336 
Q 2394 -81 1725 -81 
Q 1122 -81 723 278 
Q 325 638 269 1209 
z
" id="ArialMT-33" transform="scale(0.015625)"/>
       </defs>
       <use xlink:href="#ArialMT-33"/>
       <use x="55.615234" xlink:href="#ArialMT-30"/>
      </g>
     </g>
    </g>
    <g id="xtick_5">
     <g id="line2d_5">
      <g>
       <use style="stroke:#000000;stroke-width:0.8;" x="182.113333" xlink:href="#m1c860a4644" y="143.08"/>
      </g>
     </g>
     <g id="text_5">
      <!-- 40 -->
      <g transform="translate(177.664583 155.80625)scale(0.08 -0.08)">
       <defs>
        <path d="M 2069 0 
L 2069 1097 
L 81 1097 
L 81 1613 
L 2172 4581 
L 2631 4581 
L 2631 1613 
L 3250 1613 
L 3250 1097 
L 2631 1097 
L 2631 0 
L 2069 0 
z
M 2069 1613 
L 2069 3678 
L 634 1613 
L 2069 1613 
z
" id="ArialMT-34" transform="scale(0.015625)"/>
       </defs>
       <use xlink:href="#ArialMT-34"/>
       <use x="55.615234" xlink:href="#ArialMT-30"/>
      </g>
     </g>
    </g>
    <g id="xtick_6">
     <g id="line2d_6">
      <g>
       <use style="stroke:#000000;stroke-width:0.8;" x="215.831667" xlink:href="#m1c860a4644" y="143.08"/>
      </g>
     </g>
     <g id="text_6">
      <!-- 50 -->
      <g transform="translate(211.382917 155.80625)scale(0.08 -0.08)">
       <defs>
        <path d="M 266 1200 
L 856 1250 
Q 922 819 1161 601 
Q 1400 384 1738 384 
Q 2144 384 2425 690 
Q 2706 997 2706 1503 
Q 2706 1984 2436 2262 
Q 2166 2541 1728 2541 
Q 1456 2541 1237 2417 
Q 1019 2294 894 2097 
L 366 2166 
L 809 4519 
L 3088 4519 
L 3088 3981 
L 1259 3981 
L 1013 2750 
Q 1425 3038 1878 3038 
Q 2478 3038 2890 2622 
Q 3303 2206 3303 1553 
Q 3303 931 2941 478 
Q 2500 -78 1738 -78 
Q 1113 -78 717 272 
Q 322 622 266 1200 
z
" id="ArialMT-35" transform="scale(0.015625)"/>
       </defs>
       <use xlink:href="#ArialMT-35"/>
       <use x="55.615234" xlink:href="#ArialMT-30"/>
      </g>
     </g>
    </g>
    <g id="xtick_7">
     <g id="line2d_7">
      <g>
       <use style="stroke:#000000;stroke-width:0.8;" x="249.55" xlink:href="#m1c860a4644" y="143.08"/>
      </g>
     </g>
     <g id="text_7">
      <!-- 60 -->
      <g transform="translate(245.10125 155.80625)scale(0.08 -0.08)">
       <defs>
        <path d="M 3184 3459 
L 2625 3416 
Q 2550 3747 2413 3897 
Q 2184 4138 1850 4138 
Q 1581 4138 1378 3988 
Q 1113 3794 959 3422 
Q 806 3050 800 2363 
Q 1003 2672 1297 2822 
Q 1591 2972 1913 2972 
Q 2475 2972 2870 2558 
Q 3266 2144 3266 1488 
Q 3266 1056 3080 686 
Q 2894 316 2569 119 
Q 2244 -78 1831 -78 
Q 1128 -78 684 439 
Q 241 956 241 2144 
Q 241 3472 731 4075 
Q 1159 4600 1884 4600 
Q 2425 4600 2770 4297 
Q 3116 3994 3184 3459 
z
M 888 1484 
Q 888 1194 1011 928 
Q 1134 663 1356 523 
Q 1578 384 1822 384 
Q 2178 384 2434 671 
Q 2691 959 2691 1453 
Q 2691 1928 2437 2201 
Q 2184 2475 1800 2475 
Q 1419 2475 1153 2201 
Q 888 1928 888 1484 
z
" id="ArialMT-36" transform="scale(0.015625)"/>
       </defs>
       <use xlink:href="#ArialMT-36"/>
       <use x="55.615234" xlink:href="#ArialMT-30"/>
      </g>
     </g>
    </g>
    <g id="text_8">
     <!-- path length [$d_\mathrm{exit}$] -->
     <g transform="translate(117.355 167.47625)scale(0.08 -0.08)">
      <defs>
       <path d="M 422 -1272 
L 422 3319 
L 934 3319 
L 934 2888 
Q 1116 3141 1344 3267 
Q 1572 3394 1897 3394 
Q 2322 3394 2647 3175 
Q 2972 2956 3137 2557 
Q 3303 2159 3303 1684 
Q 3303 1175 3120 767 
Q 2938 359 2589 142 
Q 2241 -75 1856 -75 
Q 1575 -75 1351 44 
Q 1128 163 984 344 
L 984 -1272 
L 422 -1272 
z
M 931 1641 
Q 931 1000 1190 694 
Q 1450 388 1819 388 
Q 2194 388 2461 705 
Q 2728 1022 2728 1688 
Q 2728 2322 2467 2637 
Q 2206 2953 1844 2953 
Q 1484 2953 1207 2617 
Q 931 2281 931 1641 
z
" id="ArialMT-70" transform="scale(0.015625)"/>
       <path d="M 2588 409 
Q 2275 144 1986 34 
Q 1697 -75 1366 -75 
Q 819 -75 525 192 
Q 231 459 231 875 
Q 231 1119 342 1320 
Q 453 1522 633 1644 
Q 813 1766 1038 1828 
Q 1203 1872 1538 1913 
Q 2219 1994 2541 2106 
Q 2544 2222 2544 2253 
Q 2544 2597 2384 2738 
Q 2169 2928 1744 2928 
Q 1347 2928 1158 2789 
Q 969 2650 878 2297 
L 328 2372 
Q 403 2725 575 2942 
Q 747 3159 1072 3276 
Q 1397 3394 1825 3394 
Q 2250 3394 2515 3294 
Q 2781 3194 2906 3042 
Q 3031 2891 3081 2659 
Q 3109 2516 3109 2141 
L 3109 1391 
Q 3109 606 3145 398 
Q 3181 191 3288 0 
L 2700 0 
Q 2613 175 2588 409 
z
M 2541 1666 
Q 2234 1541 1622 1453 
Q 1275 1403 1131 1340 
Q 988 1278 909 1158 
Q 831 1038 831 891 
Q 831 666 1001 516 
Q 1172 366 1500 366 
Q 1825 366 2078 508 
Q 2331 650 2450 897 
Q 2541 1088 2541 1459 
L 2541 1666 
z
" id="ArialMT-61" transform="scale(0.015625)"/>
       <path d="M 1650 503 
L 1731 6 
Q 1494 -44 1306 -44 
Q 1000 -44 831 53 
Q 663 150 594 308 
Q 525 466 525 972 
L 525 2881 
L 113 2881 
L 113 3319 
L 525 3319 
L 525 4141 
L 1084 4478 
L 1084 3319 
L 1650 3319 
L 1650 2881 
L 1084 2881 
L 1084 941 
Q 1084 700 1114 631 
Q 1144 563 1211 522 
Q 1278 481 1403 481 
Q 1497 481 1650 503 
z
" id="ArialMT-74" transform="scale(0.015625)"/>
       <path d="M 422 0 
L 422 4581 
L 984 4581 
L 984 2938 
Q 1378 3394 1978 3394 
Q 2347 3394 2619 3248 
Q 2891 3103 3008 2847 
Q 3125 2591 3125 2103 
L 3125 0 
L 2563 0 
L 2563 2103 
Q 2563 2525 2380 2717 
Q 2197 2909 1863 2909 
Q 1613 2909 1392 2779 
Q 1172 2650 1078 2428 
Q 984 2206 984 1816 
L 984 0 
L 422 0 
z
" id="ArialMT-68" transform="scale(0.015625)"/>
       <path id="ArialMT-20" transform="scale(0.015625)"/>
       <path d="M 409 0 
L 409 4581 
L 972 4581 
L 972 0 
L 409 0 
z
" id="ArialMT-6c" transform="scale(0.015625)"/>
       <path d="M 2694 1069 
L 3275 997 
Q 3138 488 2766 206 
Q 2394 -75 1816 -75 
Q 1088 -75 661 373 
Q 234 822 234 1631 
Q 234 2469 665 2931 
Q 1097 3394 1784 3394 
Q 2450 3394 2872 2941 
Q 3294 2488 3294 1666 
Q 3294 1616 3291 1516 
L 816 1516 
Q 847 969 1125 678 
Q 1403 388 1819 388 
Q 2128 388 2347 550 
Q 2566 713 2694 1069 
z
M 847 1978 
L 2700 1978 
Q 2663 2397 2488 2606 
Q 2219 2931 1791 2931 
Q 1403 2931 1139 2672 
Q 875 2413 847 1978 
z
" id="ArialMT-65" transform="scale(0.015625)"/>
       <path d="M 422 0 
L 422 3319 
L 928 3319 
L 928 2847 
Q 1294 3394 1984 3394 
Q 2284 3394 2536 3286 
Q 2788 3178 2913 3003 
Q 3038 2828 3088 2588 
Q 3119 2431 3119 2041 
L 3119 0 
L 2556 0 
L 2556 2019 
Q 2556 2363 2490 2533 
Q 2425 2703 2258 2804 
Q 2091 2906 1866 2906 
Q 1506 2906 1245 2678 
Q 984 2450 984 1813 
L 984 0 
L 422 0 
z
" id="ArialMT-6e" transform="scale(0.015625)"/>
       <path d="M 319 -275 
L 866 -356 
Q 900 -609 1056 -725 
Q 1266 -881 1628 -881 
Q 2019 -881 2231 -725 
Q 2444 -569 2519 -288 
Q 2563 -116 2559 434 
Q 2191 0 1641 0 
Q 956 0 581 494 
Q 206 988 206 1678 
Q 206 2153 378 2554 
Q 550 2956 876 3175 
Q 1203 3394 1644 3394 
Q 2231 3394 2613 2919 
L 2613 3319 
L 3131 3319 
L 3131 450 
Q 3131 -325 2973 -648 
Q 2816 -972 2473 -1159 
Q 2131 -1347 1631 -1347 
Q 1038 -1347 672 -1080 
Q 306 -813 319 -275 
z
M 784 1719 
Q 784 1066 1043 766 
Q 1303 466 1694 466 
Q 2081 466 2343 764 
Q 2606 1063 2606 1700 
Q 2606 2309 2336 2618 
Q 2066 2928 1684 2928 
Q 1309 2928 1046 2623 
Q 784 2319 784 1719 
z
" id="ArialMT-67" transform="scale(0.015625)"/>
       <path d="M 434 -1272 
L 434 4581 
L 1675 4581 
L 1675 4116 
L 997 4116 
L 997 -806 
L 1675 -806 
L 1675 -1272 
L 434 -1272 
z
" id="ArialMT-5b" transform="scale(0.015625)"/>
       <path d="M 2675 525 
Q 2444 222 2128 65 
Q 1813 -91 1428 -91 
Q 903 -91 598 267 
Q 294 625 294 1247 
Q 294 1766 478 2236 
Q 663 2706 1013 3078 
Q 1244 3325 1534 3454 
Q 1825 3584 2144 3584 
Q 2481 3584 2739 3421 
Q 2997 3259 3138 2956 
L 3513 4863 
L 4091 4863 
L 3144 0 
L 2566 0 
L 2675 525 
z
M 891 1350 
Q 891 897 1095 644 
Q 1300 391 1663 391 
Q 1931 391 2161 520 
Q 2391 650 2566 903 
Q 2750 1166 2856 1509 
Q 2963 1853 2963 2188 
Q 2963 2622 2758 2865 
Q 2553 3109 2194 3109 
Q 1922 3109 1687 2981 
Q 1453 2853 1288 2613 
Q 1106 2353 998 2009 
Q 891 1666 891 1350 
z
" id="DejaVuSans-Oblique-64" transform="scale(0.015625)"/>
       <path d="M 3597 1894 
L 3597 1613 
L 953 1613 
Q 991 1019 1311 708 
Q 1631 397 2203 397 
Q 2534 397 2845 478 
Q 3156 559 3463 722 
L 3463 178 
Q 3153 47 2828 -22 
Q 2503 -91 2169 -91 
Q 1331 -91 842 396 
Q 353 884 353 1716 
Q 353 2575 817 3079 
Q 1281 3584 2069 3584 
Q 2775 3584 3186 3129 
Q 3597 2675 3597 1894 
z
M 3022 2063 
Q 3016 2534 2758 2815 
Q 2500 3097 2075 3097 
Q 1594 3097 1305 2825 
Q 1016 2553 972 2059 
L 3022 2063 
z
" id="DejaVuSans-65" transform="scale(0.015625)"/>
       <path d="M 3513 3500 
L 2247 1797 
L 3578 0 
L 2900 0 
L 1881 1375 
L 863 0 
L 184 0 
L 1544 1831 
L 300 3500 
L 978 3500 
L 1906 2253 
L 2834 3500 
L 3513 3500 
z
" id="DejaVuSans-78" transform="scale(0.015625)"/>
       <path d="M 603 3500 
L 1178 3500 
L 1178 0 
L 603 0 
L 603 3500 
z
M 603 4863 
L 1178 4863 
L 1178 4134 
L 603 4134 
L 603 4863 
z
" id="DejaVuSans-69" transform="scale(0.015625)"/>
       <path d="M 1172 4494 
L 1172 3500 
L 2356 3500 
L 2356 3053 
L 1172 3053 
L 1172 1153 
Q 1172 725 1289 603 
Q 1406 481 1766 481 
L 2356 481 
L 2356 0 
L 1766 0 
Q 1100 0 847 248 
Q 594 497 594 1153 
L 594 3053 
L 172 3053 
L 172 3500 
L 594 3500 
L 594 4494 
L 1172 4494 
z
" id="DejaVuSans-74" transform="scale(0.015625)"/>
       <path d="M 1363 -1272 
L 122 -1272 
L 122 -806 
L 800 -806 
L 800 4116 
L 122 4116 
L 122 4581 
L 1363 4581 
L 1363 -1272 
z
" id="ArialMT-5d" transform="scale(0.015625)"/>
      </defs>
      <use transform="translate(0 0.015625)" xlink:href="#ArialMT-70"/>
      <use transform="translate(55.615234 0.015625)" xlink:href="#ArialMT-61"/>
      <use transform="translate(111.230469 0.015625)" xlink:href="#ArialMT-74"/>
      <use transform="translate(139.013672 0.015625)" xlink:href="#ArialMT-68"/>
      <use transform="translate(194.628906 0.015625)" xlink:href="#ArialMT-20"/>
      <use transform="translate(222.412109 0.015625)" xlink:href="#ArialMT-6c"/>
      <use transform="translate(244.628906 0.015625)" xlink:href="#ArialMT-65"/>
      <use transform="translate(300.244141 0.015625)" xlink:href="#ArialMT-6e"/>
      <use transform="translate(355.859375 0.015625)" xlink:href="#ArialMT-67"/>
      <use transform="translate(411.474609 0.015625)" xlink:href="#ArialMT-74"/>
      <use transform="translate(439.257812 0.015625)" xlink:href="#ArialMT-68"/>
      <use transform="translate(494.873047 0.015625)" xlink:href="#ArialMT-20"/>
      <use transform="translate(522.65625 0.015625)" xlink:href="#ArialMT-5b"/>
      <use transform="translate(550.439453 0.015625)" xlink:href="#DejaVuSans-Oblique-64"/>
      <use transform="translate(613.916016 -16.390625)scale(0.7)" xlink:href="#DejaVuSans-65"/>
      <use transform="translate(656.982422 -16.390625)scale(0.7)" xlink:href="#DejaVuSans-78"/>
      <use transform="translate(698.408203 -16.390625)scale(0.7)" xlink:href="#DejaVuSans-69"/>
      <use transform="translate(717.856445 -16.390625)scale(0.7)" xlink:href="#DejaVuSans-74"/>
      <use transform="translate(748.037109 0.015625)" xlink:href="#ArialMT-5d"/>
     </g>
    </g>
   </g>
   <g id="matplotlib.axis_2">
    <g id="ytick_1">
     <g id="line2d_8">
      <defs>
       <path d="M 0 0 
L -3.5 0 
" id="m058c4a6b33" style="stroke:#000000;stroke-width:0.8;"/>
      </defs>
      <g>
       <use style="stroke:#000000;stroke-width:0.8;" x="47.24" xlink:href="#m058c4a6b33" y="143.08"/>
      </g>
     </g>
     <g id="text_9">
      <!-- 0% -->
      <g transform="translate(28.6775 145.943125)scale(0.08 -0.08)">
       <defs>
        <path d="M 372 3481 
Q 372 3972 619 4315 
Q 866 4659 1334 4659 
Q 1766 4659 2048 4351 
Q 2331 4044 2331 3447 
Q 2331 2866 2045 2552 
Q 1759 2238 1341 2238 
Q 925 2238 648 2547 
Q 372 2856 372 3481 
z
M 1350 4272 
Q 1141 4272 1002 4090 
Q 863 3909 863 3425 
Q 863 2984 1003 2804 
Q 1144 2625 1350 2625 
Q 1563 2625 1702 2806 
Q 1841 2988 1841 3469 
Q 1841 3913 1700 4092 
Q 1559 4272 1350 4272 
z
M 1353 -169 
L 3859 4659 
L 4316 4659 
L 1819 -169 
L 1353 -169 
z
M 3334 1075 
Q 3334 1569 3581 1911 
Q 3828 2253 4300 2253 
Q 4731 2253 5014 1945 
Q 5297 1638 5297 1041 
Q 5297 459 5011 145 
Q 4725 -169 4303 -169 
Q 3888 -169 3611 142 
Q 3334 453 3334 1075 
z
M 4316 1866 
Q 4103 1866 3964 1684 
Q 3825 1503 3825 1019 
Q 3825 581 3965 400 
Q 4106 219 4313 219 
Q 4528 219 4667 400 
Q 4806 581 4806 1063 
Q 4806 1506 4665 1686 
Q 4525 1866 4316 1866 
z
" id="ArialMT-25" transform="scale(0.015625)"/>
       </defs>
       <use xlink:href="#ArialMT-30"/>
       <use x="55.615234" xlink:href="#ArialMT-25"/>
      </g>
     </g>
    </g>
    <g id="ytick_2">
     <g id="line2d_9">
      <g>
       <use style="stroke:#000000;stroke-width:0.8;" x="47.24" xlink:href="#m058c4a6b33" y="116.768"/>
      </g>
     </g>
     <g id="text_10">
      <!-- 20% -->
      <g transform="translate(24.22875 119.631125)scale(0.08 -0.08)">
       <use xlink:href="#ArialMT-32"/>
       <use x="55.615234" xlink:href="#ArialMT-30"/>
       <use x="111.230469" xlink:href="#ArialMT-25"/>
      </g>
     </g>
    </g>
    <g id="ytick_3">
     <g id="line2d_10">
      <g>
       <use style="stroke:#000000;stroke-width:0.8;" x="47.24" xlink:href="#m058c4a6b33" y="90.456"/>
      </g>
     </g>
     <g id="text_11">
      <!-- 40% -->
      <g transform="translate(24.22875 93.319125)scale(0.08 -0.08)">
       <use xlink:href="#ArialMT-34"/>
       <use x="55.615234" xlink:href="#ArialMT-30"/>
       <use x="111.230469" xlink:href="#ArialMT-25"/>
      </g>
     </g>
    </g>
    <g id="ytick_4">
     <g id="line2d_11">
      <g>
       <use style="stroke:#000000;stroke-width:0.8;" x="47.24" xlink:href="#m058c4a6b33" y="64.144"/>
      </g>
     </g>
     <g id="text_12">
      <!-- 60% -->
      <g transform="translate(24.22875 67.007125)scale(0.08 -0.08)">
       <use xlink:href="#ArialMT-36"/>
       <use x="55.615234" xlink:href="#ArialMT-30"/>
       <use x="111.230469" xlink:href="#ArialMT-25"/>
      </g>
     </g>
    </g>
    <g id="ytick_5">
     <g id="line2d_12">
      <g>
       <use style="stroke:#000000;stroke-width:0.8;" x="47.24" xlink:href="#m058c4a6b33" y="37.832"/>
      </g>
     </g>
     <g id="text_13">
      <!-- 80% -->
      <g transform="translate(24.22875 40.695125)scale(0.08 -0.08)">
       <defs>
        <path d="M 1131 2484 
Q 781 2613 612 2850 
Q 444 3088 444 3419 
Q 444 3919 803 4259 
Q 1163 4600 1759 4600 
Q 2359 4600 2725 4251 
Q 3091 3903 3091 3403 
Q 3091 3084 2923 2848 
Q 2756 2613 2416 2484 
Q 2838 2347 3058 2040 
Q 3278 1734 3278 1309 
Q 3278 722 2862 322 
Q 2447 -78 1769 -78 
Q 1091 -78 675 323 
Q 259 725 259 1325 
Q 259 1772 486 2073 
Q 713 2375 1131 2484 
z
M 1019 3438 
Q 1019 3113 1228 2906 
Q 1438 2700 1772 2700 
Q 2097 2700 2305 2904 
Q 2513 3109 2513 3406 
Q 2513 3716 2298 3927 
Q 2084 4138 1766 4138 
Q 1444 4138 1231 3931 
Q 1019 3725 1019 3438 
z
M 838 1322 
Q 838 1081 952 856 
Q 1066 631 1291 507 
Q 1516 384 1775 384 
Q 2178 384 2440 643 
Q 2703 903 2703 1303 
Q 2703 1709 2433 1975 
Q 2163 2241 1756 2241 
Q 1359 2241 1098 1978 
Q 838 1716 838 1322 
z
" id="ArialMT-38" transform="scale(0.015625)"/>
       </defs>
       <use xlink:href="#ArialMT-38"/>
       <use x="55.615234" xlink:href="#ArialMT-30"/>
       <use x="111.230469" xlink:href="#ArialMT-25"/>
      </g>
     </g>
    </g>
    <g id="ytick_6">
     <g id="line2d_13">
      <g>
       <use style="stroke:#000000;stroke-width:0.8;" x="47.24" xlink:href="#m058c4a6b33" y="11.52"/>
      </g>
     </g>
     <g id="text_14">
      <!-- 100% -->
      <g transform="translate(19.78 14.383125)scale(0.08 -0.08)">
       <use xlink:href="#ArialMT-31"/>
       <use x="55.615234" xlink:href="#ArialMT-30"/>
       <use x="111.230469" xlink:href="#ArialMT-30"/>
       <use x="166.845703" xlink:href="#ArialMT-25"/>
      </g>
     </g>
    </g>
    <g id="text_15">
     <!-- fraction of success -->
     <g transform="translate(14.19 110.423125)rotate(-90)scale(0.08 -0.08)">
      <defs>
       <path d="M 556 0 
L 556 2881 
L 59 2881 
L 59 3319 
L 556 3319 
L 556 3672 
Q 556 4006 616 4169 
Q 697 4388 901 4523 
Q 1106 4659 1475 4659 
Q 1713 4659 2000 4603 
L 1916 4113 
Q 1741 4144 1584 4144 
Q 1328 4144 1222 4034 
Q 1116 3925 1116 3625 
L 1116 3319 
L 1763 3319 
L 1763 2881 
L 1116 2881 
L 1116 0 
L 556 0 
z
" id="ArialMT-66" transform="scale(0.015625)"/>
       <path d="M 416 0 
L 416 3319 
L 922 3319 
L 922 2816 
Q 1116 3169 1280 3281 
Q 1444 3394 1641 3394 
Q 1925 3394 2219 3213 
L 2025 2691 
Q 1819 2813 1613 2813 
Q 1428 2813 1281 2702 
Q 1134 2591 1072 2394 
Q 978 2094 978 1738 
L 978 0 
L 416 0 
z
" id="ArialMT-72" transform="scale(0.015625)"/>
       <path d="M 2588 1216 
L 3141 1144 
Q 3050 572 2676 248 
Q 2303 -75 1759 -75 
Q 1078 -75 664 370 
Q 250 816 250 1647 
Q 250 2184 428 2587 
Q 606 2991 970 3192 
Q 1334 3394 1763 3394 
Q 2303 3394 2647 3120 
Q 2991 2847 3088 2344 
L 2541 2259 
Q 2463 2594 2264 2762 
Q 2066 2931 1784 2931 
Q 1359 2931 1093 2626 
Q 828 2322 828 1663 
Q 828 994 1084 691 
Q 1341 388 1753 388 
Q 2084 388 2306 591 
Q 2528 794 2588 1216 
z
" id="ArialMT-63" transform="scale(0.015625)"/>
       <path d="M 425 3934 
L 425 4581 
L 988 4581 
L 988 3934 
L 425 3934 
z
M 425 0 
L 425 3319 
L 988 3319 
L 988 0 
L 425 0 
z
" id="ArialMT-69" transform="scale(0.015625)"/>
       <path d="M 213 1659 
Q 213 2581 725 3025 
Q 1153 3394 1769 3394 
Q 2453 3394 2887 2945 
Q 3322 2497 3322 1706 
Q 3322 1066 3130 698 
Q 2938 331 2570 128 
Q 2203 -75 1769 -75 
Q 1072 -75 642 372 
Q 213 819 213 1659 
z
M 791 1659 
Q 791 1022 1069 705 
Q 1347 388 1769 388 
Q 2188 388 2466 706 
Q 2744 1025 2744 1678 
Q 2744 2294 2464 2611 
Q 2184 2928 1769 2928 
Q 1347 2928 1069 2612 
Q 791 2297 791 1659 
z
" id="ArialMT-6f" transform="scale(0.015625)"/>
       <path d="M 197 991 
L 753 1078 
Q 800 744 1014 566 
Q 1228 388 1613 388 
Q 2000 388 2187 545 
Q 2375 703 2375 916 
Q 2375 1106 2209 1216 
Q 2094 1291 1634 1406 
Q 1016 1563 777 1677 
Q 538 1791 414 1992 
Q 291 2194 291 2438 
Q 291 2659 392 2848 
Q 494 3038 669 3163 
Q 800 3259 1026 3326 
Q 1253 3394 1513 3394 
Q 1903 3394 2198 3281 
Q 2494 3169 2634 2976 
Q 2775 2784 2828 2463 
L 2278 2388 
Q 2241 2644 2061 2787 
Q 1881 2931 1553 2931 
Q 1166 2931 1000 2803 
Q 834 2675 834 2503 
Q 834 2394 903 2306 
Q 972 2216 1119 2156 
Q 1203 2125 1616 2013 
Q 2213 1853 2448 1751 
Q 2684 1650 2818 1456 
Q 2953 1263 2953 975 
Q 2953 694 2789 445 
Q 2625 197 2315 61 
Q 2006 -75 1616 -75 
Q 969 -75 630 194 
Q 291 463 197 991 
z
" id="ArialMT-73" transform="scale(0.015625)"/>
       <path d="M 2597 0 
L 2597 488 
Q 2209 -75 1544 -75 
Q 1250 -75 995 37 
Q 741 150 617 320 
Q 494 491 444 738 
Q 409 903 409 1263 
L 409 3319 
L 972 3319 
L 972 1478 
Q 972 1038 1006 884 
Q 1059 663 1231 536 
Q 1403 409 1656 409 
Q 1909 409 2131 539 
Q 2353 669 2445 892 
Q 2538 1116 2538 1541 
L 2538 3319 
L 3100 3319 
L 3100 0 
L 2597 0 
z
" id="ArialMT-75" transform="scale(0.015625)"/>
      </defs>
      <use xlink:href="#ArialMT-66"/>
      <use x="27.783203" xlink:href="#ArialMT-72"/>
      <use x="61.083984" xlink:href="#ArialMT-61"/>
      <use x="116.699219" xlink:href="#ArialMT-63"/>
      <use x="166.699219" xlink:href="#ArialMT-74"/>
      <use x="194.482422" xlink:href="#ArialMT-69"/>
      <use x="216.699219" xlink:href="#ArialMT-6f"/>
      <use x="272.314453" xlink:href="#ArialMT-6e"/>
      <use x="327.929688" xlink:href="#ArialMT-20"/>
      <use x="355.712891" xlink:href="#ArialMT-6f"/>
      <use x="411.328125" xlink:href="#ArialMT-66"/>
      <use x="439.111328" xlink:href="#ArialMT-20"/>
      <use x="466.894531" xlink:href="#ArialMT-73"/>
      <use x="516.894531" xlink:href="#ArialMT-75"/>
      <use x="572.509766" xlink:href="#ArialMT-63"/>
      <use x="622.509766" xlink:href="#ArialMT-63"/>
      <use x="672.509766" xlink:href="#ArialMT-65"/>
      <use x="728.125" xlink:href="#ArialMT-73"/>
      <use x="778.125" xlink:href="#ArialMT-73"/>
     </g>
    </g>
   </g>
   <g id="line2d_14">
    <path clip-path="url(#p76a7edf013)" d="M 47.24 143.08 
L 50.611833 143.08 
L 53.983667 142.750276 
L 57.3555 135.166617 
L 60.727333 113.734536 
L 64.099167 83.3999 
L 67.471 55.703058 
L 70.842833 39.216842 
L 74.214667 31.633183 
L 77.5865 27.346767 
L 80.958333 24.049524 
L 84.330167 20.752281 
L 87.702 18.114486 
L 91.073833 16.465865 
L 94.445667 15.146967 
L 97.8175 14.487519 
L 101.189333 14.157794 
L 104.561167 13.82807 
L 107.933 13.498346 
L 111.304833 13.168622 
L 114.676667 12.838897 
L 118.0485 12.509173 
L 121.420333 12.509173 
L 124.792167 12.509173 
L 128.164 12.509173 
L 131.535833 12.509173 
L 134.907667 12.509173 
L 138.2795 12.509173 
L 141.651333 12.509173 
L 145.023167 12.509173 
L 148.395 12.509173 
L 151.766833 12.509173 
L 155.138667 12.509173 
L 158.5105 12.179449 
L 161.882333 11.849724 
L 165.254167 11.52 
L 168.626 11.52 
" style="fill:none;stroke:#9400d3;stroke-linecap:square;"/>
   </g>
   <g id="line2d_15">
    <path clip-path="url(#p76a7edf013)" d="M 47.24 143.08 
L 50.611833 143.08 
L 53.983667 142.090827 
L 57.3555 138.793584 
L 60.727333 128.901855 
L 64.099167 111.75619 
L 67.471 90.32411 
L 70.842833 70.870376 
L 74.214667 57.351679 
L 77.5865 48.449123 
L 80.958333 42.184361 
L 84.330167 37.238496 
L 87.702 33.281805 
L 91.073833 30.314286 
L 94.445667 27.676491 
L 97.8175 25.698145 
L 101.189333 24.049524 
L 104.561167 22.730627 
L 107.933 20.752281 
L 111.304833 19.103659 
L 114.676667 17.784762 
L 118.0485 16.795589 
L 121.420333 15.806416 
L 124.792167 14.817243 
L 128.164 14.487519 
L 131.535833 14.487519 
L 134.907667 14.487519 
L 138.2795 14.487519 
L 141.651333 14.157794 
L 145.023167 13.82807 
L 148.395 13.498346 
L 151.766833 13.498346 
L 155.138667 13.498346 
L 158.5105 12.838897 
L 161.882333 12.179449 
L 165.254167 11.52 
L 168.626 11.52 
" style="fill:none;stroke:#ff9b00;stroke-linecap:square;"/>
   </g>
   <g id="line2d_16">
    <path clip-path="url(#p76a7edf013)" d="M 47.24 143.08 
L 50.611833 143.08 
L 53.983667 143.08 
L 57.3555 143.08 
L 60.727333 142.208742 
L 64.099167 139.072212 
L 67.471 132.973404 
L 70.842833 124.783576 
L 74.214667 114.67698 
L 77.5865 103.176371 
L 80.958333 92.721272 
L 84.330167 84.531444 
L 87.702 77.735629 
L 91.073833 72.333828 
L 94.445667 68.151788 
L 97.8175 64.841007 
L 101.189333 61.704477 
L 104.561167 59.090702 
L 107.933 56.82543 
L 111.304833 55.082914 
L 114.676667 53.688901 
L 118.0485 52.817642 
L 121.420333 51.946384 
L 124.792167 51.249377 
L 128.164 50.203868 
L 131.535833 48.809854 
L 134.907667 47.241589 
L 138.2795 45.847576 
L 141.651333 44.10506 
L 145.023167 43.233801 
L 148.395 42.536795 
L 151.766833 42.01404 
L 155.138667 41.491285 
L 158.5105 41.317033 
L 161.882333 41.142781 
L 165.254167 41.142781 
L 168.626 41.142781 
L 171.997833 41.142781 
L 175.369667 41.142781 
L 178.7415 41.142781 
L 182.113333 40.96853 
L 185.485167 40.794278 
L 188.857 40.445775 
L 192.228833 40.097272 
L 195.600667 39.748768 
L 198.9725 39.574517 
L 202.344333 39.400265 
L 205.716167 39.400265 
L 209.088 39.400265 
L 212.459833 39.400265 
L 215.831667 39.400265 
L 219.2035 39.226013 
L 222.575333 39.051762 
L 225.947167 38.87751 
L 229.319 38.703258 
L 232.690833 38.529007 
L 236.062667 38.529007 
L 239.4345 38.354755 
" style="fill:none;stroke:#00ff00;stroke-linecap:square;"/>
   </g>
   <g id="line2d_17">
    <path clip-path="url(#p76a7edf013)" d="M 47.24 143.08 
L 57.3555 142.989643 
L 67.471 142.718571 
L 70.842833 142.4475 
L 74.214667 141.950536 
L 77.5865 141.318036 
L 80.958333 140.414464 
L 84.330167 139.194643 
L 87.702 137.477857 
L 91.073833 135.444821 
L 94.445667 133.140714 
L 97.8175 130.475179 
L 101.189333 127.538571 
L 107.933 121.213571 
L 111.304833 117.644464 
L 124.792167 102.690357 
L 131.535833 95.868393 
L 134.907667 92.841429 
L 138.2795 89.995179 
L 141.651333 87.329643 
L 145.023167 84.935179 
L 148.395 82.721429 
L 151.766833 80.733571 
L 155.138667 78.610179 
L 158.5105 76.757857 
L 161.882333 75.041071 
L 171.997833 70.523214 
L 175.369667 69.122679 
L 178.7415 67.857679 
L 185.485167 65.779464 
L 192.228833 64.0175 
L 202.344333 61.758571 
L 209.088 60.719464 
L 215.831667 59.951429 
L 239.4345 57.6925 
L 242.806333 57.285893 
L 252.921833 56.382321 
L 259.6655 55.659464 
L 269.781 54.258929 
L 279.8965 52.677679 
L 286.640167 51.819286 
L 306.871167 49.741071 
L 313.614833 49.289286 
L 361 47.926713 
L 361 47.926713 
" style="fill:none;stroke:#ffd700;stroke-linecap:square;"/>
   </g>
   <g id="line2d_18">
    <path clip-path="url(#p76a7edf013)" d="M 47.24 143.08 
L 53.983667 143.08 
L 57.3555 142.870259 
L 60.727333 142.450777 
L 64.099167 141.769119 
L 67.471 140.615544 
L 70.842833 138.937617 
L 74.214667 136.630466 
L 77.5865 133.903834 
L 80.958333 130.705285 
L 84.330167 126.877513 
L 87.702 122.368083 
L 91.073833 117.386736 
L 94.445667 112.038342 
L 101.189333 100.187979 
L 107.933 88.023005 
L 111.304833 82.25513 
L 114.676667 76.801865 
L 118.0485 71.872953 
L 121.420333 67.206218 
L 124.792167 62.801658 
L 128.164 58.81658 
L 131.535833 55.460725 
L 134.907667 52.314611 
L 138.2795 49.325803 
L 141.651333 46.704041 
L 145.023167 44.501762 
L 148.395 42.509223 
L 155.138667 38.891192 
L 161.882333 35.640207 
L 165.254167 34.172021 
L 168.626 32.86114 
L 175.369667 30.606425 
L 182.113333 29.033368 
L 192.228833 26.726218 
L 198.9725 25.572642 
L 209.088 23.894715 
L 229.319 20.486425 
L 236.062667 19.595026 
L 249.55 17.392746 
L 256.293667 16.501347 
L 266.409167 15.505078 
L 286.640167 13.984456 
L 300.1275 13.460104 
L 327.102167 12.72601 
L 361 12.201658 
L 361 12.201658 
" style="fill:none;stroke:#ff7f00;stroke-linecap:square;"/>
   </g>
   <g id="line2d_19">
    <path clip-path="url(#p76a7edf013)" d="M 47.24 143.08 
L 53.983667 142.980333 
L 60.727333 141.884 
L 67.471 139.392333 
L 74.214667 136.003667 
L 77.5865 134.010333 
L 84.330167 129.126667 
L 87.702 126.336 
L 94.445667 120.057 
L 97.8175 116.568667 
L 101.189333 112.582 
L 104.561167 108.196667 
L 107.933 104.010667 
L 111.304833 99.625333 
L 114.676667 95.638667 
L 118.0485 91.253333 
L 121.420333 87.266667 
L 128.164 78.994333 
L 131.535833 75.107333 
L 138.2795 67.034333 
L 148.395 56.071 
L 151.766833 53.081 
L 155.138667 50.589333 
L 165.254167 43.612667 
L 175.369667 38.230667 
L 178.7415 36.735667 
L 182.113333 35.44 
L 185.485167 34.343667 
L 192.228833 32.549667 
L 205.716167 29.659333 
L 209.088 28.862 
L 215.831667 28.164333 
L 225.947167 27.167667 
L 236.062667 25.772333 
L 266.409167 22.084667 
L 273.152833 21.187667 
L 279.8965 20.689333 
L 306.871167 19.194333 
L 316.986667 18.995 
L 327.102167 18.895333 
L 333.845833 18.397 
L 361 15.989083 
L 361 15.989083 
" style="fill:none;stroke:#ff0000;stroke-linecap:square;"/>
   </g>
   <g id="patch_3">
    <path d="M 47.24 143.08 
L 47.24 11.52 
" style="fill:none;stroke:#000000;stroke-linecap:square;stroke-linejoin:miter;stroke-width:0.8;"/>
   </g>
   <g id="patch_4">
    <path d="M 249.55 143.08 
L 249.55 11.52 
" style="fill:none;stroke:#000000;stroke-linecap:square;stroke-linejoin:miter;stroke-width:0.8;"/>
   </g>
   <g id="patch_5">
    <path d="M 47.24 143.08 
L 249.55 143.08 
" style="fill:none;stroke:#000000;stroke-linecap:square;stroke-linejoin:miter;stroke-width:0.8;"/>
   </g>
   <g id="patch_6">
    <path d="M 47.24 11.52 
L 249.55 11.52 
" style="fill:none;stroke:#000000;stroke-linecap:square;stroke-linejoin:miter;stroke-width:0.8;"/>
   </g>
   <g id="legend_1">
    <g id="patch_7">
     <path d="M 264.5655 77.534375 
L 345.716281 77.534375 
Q 347.116281 77.534375 347.116281 76.134375 
L 347.116281 16.42 
Q 347.116281 15.02 345.716281 15.02 
L 264.5655 15.02 
Q 263.1655 15.02 263.1655 16.42 
L 263.1655 76.134375 
Q 263.1655 77.534375 264.5655 77.534375 
z
" style="fill:#ffffff;opacity:0.8;stroke:#cccccc;stroke-linejoin:miter;"/>
    </g>
    <g id="line2d_20">
     <path d="M 265.9655 20.465781 
L 279.9655 20.465781 
" style="fill:none;stroke:#9400d3;stroke-linecap:square;"/>
    </g>
    <g id="line2d_21"/>
    <g id="text_16">
     <!-- XL ant group (exp) -->
     <g transform="translate(285.5655 22.915781)scale(0.07 -0.07)">
      <defs>
       <path d="M 28 0 
L 1800 2388 
L 238 4581 
L 959 4581 
L 1791 3406 
Q 2050 3041 2159 2844 
Q 2313 3094 2522 3366 
L 3444 4581 
L 4103 4581 
L 2494 2422 
L 4228 0 
L 3478 0 
L 2325 1634 
Q 2228 1775 2125 1941 
Q 1972 1691 1906 1597 
L 756 0 
L 28 0 
z
" id="ArialMT-58" transform="scale(0.015625)"/>
       <path d="M 469 0 
L 469 4581 
L 1075 4581 
L 1075 541 
L 3331 541 
L 3331 0 
L 469 0 
z
" id="ArialMT-4c" transform="scale(0.015625)"/>
       <path d="M 1497 -1347 
Q 1031 -759 709 28 
Q 388 816 388 1659 
Q 388 2403 628 3084 
Q 909 3875 1497 4659 
L 1900 4659 
Q 1522 4009 1400 3731 
Q 1209 3300 1100 2831 
Q 966 2247 966 1656 
Q 966 153 1900 -1347 
L 1497 -1347 
z
" id="ArialMT-28" transform="scale(0.015625)"/>
       <path d="M 47 0 
L 1259 1725 
L 138 3319 
L 841 3319 
L 1350 2541 
Q 1494 2319 1581 2169 
Q 1719 2375 1834 2534 
L 2394 3319 
L 3066 3319 
L 1919 1756 
L 3153 0 
L 2463 0 
L 1781 1031 
L 1600 1309 
L 728 0 
L 47 0 
z
" id="ArialMT-78" transform="scale(0.015625)"/>
       <path d="M 791 -1347 
L 388 -1347 
Q 1322 153 1322 1656 
Q 1322 2244 1188 2822 
Q 1081 3291 891 3722 
Q 769 4003 388 4659 
L 791 4659 
Q 1378 3875 1659 3084 
Q 1900 2403 1900 1659 
Q 1900 816 1576 28 
Q 1253 -759 791 -1347 
z
" id="ArialMT-29" transform="scale(0.015625)"/>
      </defs>
      <use xlink:href="#ArialMT-58"/>
      <use x="66.699219" xlink:href="#ArialMT-4c"/>
      <use x="118.564453" xlink:href="#ArialMT-20"/>
      <use x="146.347656" xlink:href="#ArialMT-61"/>
      <use x="201.962891" xlink:href="#ArialMT-6e"/>
      <use x="257.578125" xlink:href="#ArialMT-74"/>
      <use x="285.361328" xlink:href="#ArialMT-20"/>
      <use x="313.144531" xlink:href="#ArialMT-67"/>
      <use x="368.759766" xlink:href="#ArialMT-72"/>
      <use x="402.060547" xlink:href="#ArialMT-6f"/>
      <use x="457.675781" xlink:href="#ArialMT-75"/>
      <use x="513.291016" xlink:href="#ArialMT-70"/>
      <use x="568.90625" xlink:href="#ArialMT-20"/>
      <use x="596.689453" xlink:href="#ArialMT-28"/>
      <use x="629.990234" xlink:href="#ArialMT-65"/>
      <use x="685.605469" xlink:href="#ArialMT-78"/>
      <use x="735.605469" xlink:href="#ArialMT-70"/>
      <use x="791.220703" xlink:href="#ArialMT-29"/>
     </g>
    </g>
    <g id="line2d_22">
     <path d="M 265.9655 30.534844 
L 279.9655 30.534844 
" style="fill:none;stroke:#ff9b00;stroke-linecap:square;"/>
    </g>
    <g id="line2d_23"/>
    <g id="text_17">
     <!-- SL ant (exp) -->
     <g transform="translate(285.5655 32.984844)scale(0.07 -0.07)">
      <defs>
       <path d="M 288 1472 
L 859 1522 
Q 900 1178 1048 958 
Q 1197 738 1509 602 
Q 1822 466 2213 466 
Q 2559 466 2825 569 
Q 3091 672 3220 851 
Q 3350 1031 3350 1244 
Q 3350 1459 3225 1620 
Q 3100 1781 2813 1891 
Q 2628 1963 1997 2114 
Q 1366 2266 1113 2400 
Q 784 2572 623 2826 
Q 463 3081 463 3397 
Q 463 3744 659 4045 
Q 856 4347 1234 4503 
Q 1613 4659 2075 4659 
Q 2584 4659 2973 4495 
Q 3363 4331 3572 4012 
Q 3781 3694 3797 3291 
L 3216 3247 
Q 3169 3681 2898 3903 
Q 2628 4125 2100 4125 
Q 1550 4125 1298 3923 
Q 1047 3722 1047 3438 
Q 1047 3191 1225 3031 
Q 1400 2872 2139 2705 
Q 2878 2538 3153 2413 
Q 3553 2228 3743 1945 
Q 3934 1663 3934 1294 
Q 3934 928 3725 604 
Q 3516 281 3123 101 
Q 2731 -78 2241 -78 
Q 1619 -78 1198 103 
Q 778 284 539 648 
Q 300 1013 288 1472 
z
" id="ArialMT-53" transform="scale(0.015625)"/>
      </defs>
      <use xlink:href="#ArialMT-53"/>
      <use x="66.699219" xlink:href="#ArialMT-4c"/>
      <use x="118.564453" xlink:href="#ArialMT-20"/>
      <use x="146.347656" xlink:href="#ArialMT-61"/>
      <use x="201.962891" xlink:href="#ArialMT-6e"/>
      <use x="257.578125" xlink:href="#ArialMT-74"/>
      <use x="285.361328" xlink:href="#ArialMT-20"/>
      <use x="313.144531" xlink:href="#ArialMT-28"/>
      <use x="346.445312" xlink:href="#ArialMT-65"/>
      <use x="402.060547" xlink:href="#ArialMT-78"/>
      <use x="452.060547" xlink:href="#ArialMT-70"/>
      <use x="507.675781" xlink:href="#ArialMT-29"/>
     </g>
    </g>
    <g id="line2d_24">
     <path d="M 265.9655 40.603906 
L 279.9655 40.603906 
" style="fill:none;stroke:#00ff00;stroke-linecap:square;"/>
    </g>
    <g id="line2d_25"/>
    <g id="text_18">
     <!-- L ant group (exp) -->
     <g transform="translate(285.5655 43.053906)scale(0.07 -0.07)">
      <use xlink:href="#ArialMT-4c"/>
      <use x="51.865234" xlink:href="#ArialMT-20"/>
      <use x="79.648438" xlink:href="#ArialMT-61"/>
      <use x="135.263672" xlink:href="#ArialMT-6e"/>
      <use x="190.878906" xlink:href="#ArialMT-74"/>
      <use x="218.662109" xlink:href="#ArialMT-20"/>
      <use x="246.445312" xlink:href="#ArialMT-67"/>
      <use x="302.060547" xlink:href="#ArialMT-72"/>
      <use x="335.361328" xlink:href="#ArialMT-6f"/>
      <use x="390.976562" xlink:href="#ArialMT-75"/>
      <use x="446.591797" xlink:href="#ArialMT-70"/>
      <use x="502.207031" xlink:href="#ArialMT-20"/>
      <use x="529.990234" xlink:href="#ArialMT-28"/>
      <use x="563.291016" xlink:href="#ArialMT-65"/>
      <use x="618.90625" xlink:href="#ArialMT-78"/>
      <use x="668.90625" xlink:href="#ArialMT-70"/>
      <use x="724.521484" xlink:href="#ArialMT-29"/>
     </g>
    </g>
    <g id="line2d_26">
     <path d="M 265.9655 50.672969 
L 279.9655 50.672969 
" style="fill:none;stroke:#ffd700;stroke-linecap:square;"/>
    </g>
    <g id="line2d_27"/>
    <g id="text_19">
     <!-- M ant group (exp) -->
     <g transform="translate(285.5655 53.122969)scale(0.07 -0.07)">
      <defs>
       <path d="M 475 0 
L 475 4581 
L 1388 4581 
L 2472 1338 
Q 2622 884 2691 659 
Q 2769 909 2934 1394 
L 4031 4581 
L 4847 4581 
L 4847 0 
L 4263 0 
L 4263 3834 
L 2931 0 
L 2384 0 
L 1059 3900 
L 1059 0 
L 475 0 
z
" id="ArialMT-4d" transform="scale(0.015625)"/>
      </defs>
      <use xlink:href="#ArialMT-4d"/>
      <use x="83.300781" xlink:href="#ArialMT-20"/>
      <use x="111.083984" xlink:href="#ArialMT-61"/>
      <use x="166.699219" xlink:href="#ArialMT-6e"/>
      <use x="222.314453" xlink:href="#ArialMT-74"/>
      <use x="250.097656" xlink:href="#ArialMT-20"/>
      <use x="277.880859" xlink:href="#ArialMT-67"/>
      <use x="333.496094" xlink:href="#ArialMT-72"/>
      <use x="366.796875" xlink:href="#ArialMT-6f"/>
      <use x="422.412109" xlink:href="#ArialMT-75"/>
      <use x="478.027344" xlink:href="#ArialMT-70"/>
      <use x="533.642578" xlink:href="#ArialMT-20"/>
      <use x="561.425781" xlink:href="#ArialMT-28"/>
      <use x="594.726562" xlink:href="#ArialMT-65"/>
      <use x="650.341797" xlink:href="#ArialMT-78"/>
      <use x="700.341797" xlink:href="#ArialMT-70"/>
      <use x="755.957031" xlink:href="#ArialMT-29"/>
     </g>
    </g>
    <g id="line2d_28">
     <path d="M 265.9655 60.742031 
L 279.9655 60.742031 
" style="fill:none;stroke:#ff7f00;stroke-linecap:square;"/>
    </g>
    <g id="line2d_29"/>
    <g id="text_20">
     <!-- S ant group (exp) -->
     <g transform="translate(285.5655 63.192031)scale(0.07 -0.07)">
      <use xlink:href="#ArialMT-53"/>
      <use x="66.699219" xlink:href="#ArialMT-20"/>
      <use x="94.482422" xlink:href="#ArialMT-61"/>
      <use x="150.097656" xlink:href="#ArialMT-6e"/>
      <use x="205.712891" xlink:href="#ArialMT-74"/>
      <use x="233.496094" xlink:href="#ArialMT-20"/>
      <use x="261.279297" xlink:href="#ArialMT-67"/>
      <use x="316.894531" xlink:href="#ArialMT-72"/>
      <use x="350.195312" xlink:href="#ArialMT-6f"/>
      <use x="405.810547" xlink:href="#ArialMT-75"/>
      <use x="461.425781" xlink:href="#ArialMT-70"/>
      <use x="517.041016" xlink:href="#ArialMT-20"/>
      <use x="544.824219" xlink:href="#ArialMT-28"/>
      <use x="578.125" xlink:href="#ArialMT-65"/>
      <use x="633.740234" xlink:href="#ArialMT-78"/>
      <use x="683.740234" xlink:href="#ArialMT-70"/>
      <use x="739.355469" xlink:href="#ArialMT-29"/>
     </g>
    </g>
    <g id="line2d_30">
     <path d="M 265.9655 70.811094 
L 279.9655 70.811094 
" style="fill:none;stroke:#ff0000;stroke-linecap:square;"/>
    </g>
    <g id="line2d_31"/>
    <g id="text_21">
     <!-- XS ant group (exp) -->
     <g transform="translate(285.5655 73.261094)scale(0.07 -0.07)">
      <use xlink:href="#ArialMT-58"/>
      <use x="66.699219" xlink:href="#ArialMT-53"/>
      <use x="133.398438" xlink:href="#ArialMT-20"/>
      <use x="161.181641" xlink:href="#ArialMT-61"/>
      <use x="216.796875" xlink:href="#ArialMT-6e"/>
      <use x="272.412109" xlink:href="#ArialMT-74"/>
      <use x="300.195312" xlink:href="#ArialMT-20"/>
      <use x="327.978516" xlink:href="#ArialMT-67"/>
      <use x="383.59375" xlink:href="#ArialMT-72"/>
      <use x="416.894531" xlink:href="#ArialMT-6f"/>
      <use x="472.509766" xlink:href="#ArialMT-75"/>
      <use x="528.125" xlink:href="#ArialMT-70"/>
      <use x="583.740234" xlink:href="#ArialMT-20"/>
      <use x="611.523438" xlink:href="#ArialMT-28"/>
      <use x="644.824219" xlink:href="#ArialMT-65"/>
      <use x="700.439453" xlink:href="#ArialMT-78"/>
      <use x="750.439453" xlink:href="#ArialMT-70"/>
      <use x="806.054688" xlink:href="#ArialMT-29"/>
     </g>
    </g>
   </g>
  </g>
 </g>
 <defs>
  <clipPath id="p76a7edf013">
   <rect height="131.56" width="202.31" x="47.24" y="11.52"/>
  </clipPath>
 </defs>
</svg>
